<?xml version="1.0" standalone="no"?>
<!DOCTYPE svg PUBLIC "-//W3C//DTD SVG 20010904//EN"
 "http://www.w3.org/TR/2001/REC-SVG-20010904/DTD/svg10.dtd">
<svg version="1.0" xmlns="http://www.w3.org/2000/svg"
 width="16.000000pt" height="16.000000pt" viewBox="0 0 16.000000 16.000000"
 preserveAspectRatio="xMidYMid meet">
<metadata>
Created by potrace 1.11, written by Peter Selinger 2001-2013
</metadata>
<g transform="translate(0.000000,16.000000) scale(0.005229,-0.005229)"
fill="#000000" stroke="none">
<path d="M1498 3044 c-4 -3 -4 -13 -1 -22 4 -10 3 -14 -2 -10 -11 11 -1495
-1476 -1495 -1499 0 -26 1489 -1513 1515 -1513 14 0 131 111 348 328 180 181
329 327 331 325 2 -3 9 5 16 16 6 12 14 20 18 18 9 -5 151 140 144 147 -3 3 3
8 12 12 9 3 16 11 17 18 1 6 135 142 299 301 163 160 298 295 299 300 0 6 15
19 33 29 29 18 30 20 13 32 -10 7 -22 11 -28 7 -6 -3 -8 -2 -4 3 3 5 -136 151
-309 323 -173 172 -314 315 -314 318 0 3 -14 18 -31 34 -17 16 -29 29 -26 29
3 0 -9 15 -26 34 -18 18 -34 33 -37 32 -8 -2 -35 25 -393 382 -183 183 -337
329 -341 325 -4 -5 -6 1 -4 12 3 19 -21 33 -34 19z m953 -941 c13 -16 12 -17
-3 -4 -10 7 -18 15 -18 17 0 8 8 3 21 -13z"/>
</g>
</svg>
